<?xml version="1.0" encoding="utf-8"?>
<!-- Generator: Adobe Illustrator 14.0.0, SVG Export Plug-In . SVG Version: 6.00 Build 43363)  -->
<!DOCTYPE svg PUBLIC "-//W3C//DTD SVG 1.1//EN" "http://www.w3.org/Graphics/SVG/1.1/DTD/svg11.dtd">
<svg version="1.1" id="Layer_2" xmlns="http://www.w3.org/2000/svg" xmlns:xlink="http://www.w3.org/1999/xlink" x="0px" y="0px"
	 width="419.5px" height="164px" viewBox="0 0 419.5 164" enable-background="new 0 0 419.5 164" xml:space="preserve">
<path fill="none" stroke="#000000" stroke-width="9" d="M21.607,155.277v-139.9c0,0,50.921-4.5,82.894,4.624
	c20.148,5.75,30.393,16.801,30.393,35.9c0,0,3.263,42.137-59.446,43.087l56.262,53.841"/>
<polyline fill="none" stroke="#000000" stroke-width="9" points="147.833,11.132 205.797,83.145 263,11.601 "/>
<line fill="none" stroke="#000000" stroke-width="9" x1="205.417" y1="83" x2="205.417" y2="155.667"/>
<path fill="none" stroke="#000000" stroke-width="9" d="M381.486,52.701c0,0-14.237-38.04-52.966-37.939
	c0,0-45.266-3.873-53.632,53.238c0,0-12.254,81.487,56.449,82.18c0,0,44.476,2.764,50.634-39.708"/>
</svg>
